# xmcd
#
# Track frame offsets:
#	150
#	14825
#	35687
#	51433
#	75925
#	91232
#	108366
#	123647
#	142919
#	159002
#	177682
#	194721
#	210594
#	229479
#
# Disc length: 3237 seconds
#
# Revision: 1
# Processed by: cddbd v1.5.2PL0 Copyright (c) Steve Scherf et al.
# Submitted via: audiograbber 1.83.01
#
DISCID=c40ca30e
DTITLE=Paula Fernandes - Encontros Pelo Caminho
DYEAR=2014
DGENRE=Sertanejo
TTITLE0=Depois
TTITLE1=Higway Don't Care
TTITLE2=Over The Rainbow
TTITLE3=Caminhoneiro
TTITLE4=Criação Divina
TTITLE5=Pegando Lágrimas
TTITLE6=Se Tudo Fosse Fácil
TTITLE7=Hoy Me Voy
TTITLE8=You're Still The One
TTITLE9=Firebird
TTITLE10=Humanos a Marte
TTITLE11=Não Precisa
TTITLE12=Harmonia do Amor
TTITLE13=Brazil
EXTD=
EXTT0=com Victor e Leo
EXTT1=com Tim McGraw
EXTT2=com Michael Bolton
EXTT3=com Dominguinhos
EXTT4=com Zezé Di Camargo
EXTT5=com Chitãozinho e Xororó
EXTT6=com Michel Teló
EXTT7=com Juanes
EXTT8=com Shania Twain
EXTT9=com Eric Silver
EXTT10=com Chayanne
EXTT11=com Victoe e Leo
EXTT12=com Zé Ramalho
EXTT13=com Frank Sinatra
PLAYORDER=
